#!OML:ASF I:\Random Stuff\random\construction\7_22_03\Session 2\subj1.ASF
:FULLY-SPECIFIED
:DEGREES
2086
root 14.5468 17.3809 -2.09542 13.8055 -137.7 11.1331
lowerback 24.2507 3.34184 -3.8578
upperback 8.06213 1.61708 -6.0921
thorax -4.53647 0.270879 -4.84762
lowerneck -17.9634 17.0412 9.38704
upperneck 24.5326 25.2288 -15.1599
head 14.8309 9.98882 -2.39699
rclavicle -9.54166e-014 -5.40694e-014
rhumerus -2.13552 59.8633 -65.9312
rradius 89.8624
rwrist -16.6271
rhand -9.32561 17.5944
rfingers 7.12502
rthumb 16.633 -11.7129
lclavicle -9.54166e-014 -5.40694e-014
lhumerus 6.6515 -1.23368 80.1047
lradius 45.4611
lwrist 63.6879
lhand -12.5616 66.3002
lfingers 7.12502
lthumb 13.5158 624.158
rfemur -28.7267 -2.81877 24.253
rtibia 23.5771
rfoot -12.6898 -7.49844
rtoes -27.2795
lfemur -46.1877 3.30217 -4.26038
ltibia 38.6971
lfoot -9.36586 3.31068
ltoes -16.5021
2087
root 14.4919 17.3863 -2.07947 13.913 -137.433 11.2771
lowerback 24.3485 3.45805 -3.79347
upperback 8.04494 1.77819 -6.07294
thorax -4.59247 0.351795 -4.91366
lowerneck -18.171 16.9651 9.27928
upperneck 24.592 25.0674 -14.8539
head 14.7971 9.93794 -2.29399
rclavicle -1.11319e-014 -3.65764e-014
rhumerus -0.896069 59.7578 -65.9428
rradius 89.4607
rwrist -16.3483
rhand -9.86408 17.3125
rfingers 7.12502
rthumb 16.1145 -12.0376
lclavicle -1.11319e-014 -3.65764e-014
lhumerus 7.61341 -1.00211 79.594
lradius 45.3227
lwrist 63.3017
lhand -12.9308 66.4503
lfingers 7.12502
lthumb 13.1599 623.985
rfemur -28.5643 -2.5865 24.0974
rtibia 23.0984
rfoot -12.4326 -7.97918
rtoes -27.6179
lfemur -46.5564 3.63396 -4.56288
ltibia 38.787
lfoot -9.39167 3.025
ltoes -17.5691
2088
root 14.4362 17.3897 -2.06127 14.0477 -137.124 11.3858
lowerback 24.5163 3.57402 -3.74721
upperback 8.00676 1.92641 -6.07034
thorax -4.70667 0.426152 -4.9889
lowerneck -18.4479 16.9198 9.24218
upperneck 24.8186 24.9531 -14.5532
head 14.8728 9.89319 -2.18572
rclavicle 6.36111e-015 4.45278e-014
rhumerus 0.12857 59.5522 -66.0859
rradius 89.1296
rwrist -16.0537
rhand -10.2985 16.9861
rfingers 7.12502
rthumb 15.6962 -12.3973
lclavicle 6.36111e-015 4.45278e-014
lhumerus 8.6777 -0.790632 79.0639
lradius 45.0293
lwrist 62.7653
lhand -13.0842 66.7473
lfingers 7.12502
lthumb 13.012 623.678
rfemur -28.4296 -2.39944 23.9131
rtibia 22.6685
rfoot -12.2213 -8.47266
rtoes -27.7529
lfemur -46.9073 3.70858 -4.78552
ltibia 38.8743
lfoot -9.37163 2.85081
ltoes -17.73
2089
root 14.3793 17.3938 -2.04287 14.2189 -136.807 11.5008
lowerback 24.6781 3.69862 -3.72779
upperback 7.9557 2.08004 -6.07452
thorax -4.83215 0.503348 -5.05884
lowerneck -18.553 16.8302 9.25889
upperneck 24.8536 24.7698 -14.3667
head 14.8484 9.83642 -2.1563
rclavicle 5.88403e-014 4.77083e-014
rhumerus 1.0625 59.2508 -66.2596
rradius 88.8335
rwrist -15.7351
rhand -10.4941 16.8325
rfingers 7.12502
rthumb 15.5078 -12.5656
lclavicle 5.88403e-014 4.77083e-014
lhumerus 9.81956 -0.412342 78.6101
lradius 44.5379
lwrist 61.7044
lhand -12.3231 67.1049
lfingers 7.12502
lthumb 13.7456 623.369
rfemur -28.3495 -2.14674 23.7064
rtibia 22.2914
rfoot -12.0816 -8.97947
rtoes -27.5079
lfemur -47.2836 3.7091 -4.9706
ltibia 38.9536
lfoot -9.3245 2.72103
ltoes -17.7029
2090
root 14.3215 17.3983 -2.025 14.4409 -136.467 11.5944
lowerback 24.7644 3.80483 -3.80159
upperback 7.9412 2.19503 -6.06203
thorax -4.887 0.560262 -5.04109
lowerneck -18.4937 16.7265 9.3013
upperneck 24.598 24.5849 -14.3803
head 14.7037 9.78928 -2.21587
rclavicle 3.18055e-015 5.56597e-014
rhumerus 2.21427 59.0058 -66.194
rradius 88.5455
rwrist -15.2902
rhand -10.7248 16.6042
rfingers 7.12502
rthumb 15.2856 -12.8109
lclavicle 3.18055e-015 5.56597e-014
lhumerus 10.9929 -0.299373 78.1541
lradius 44.0135
lwrist 61.3844
lhand -13.0333 67.307
lfingers 7.12502
lthumb 13.0611 623.122
rfemur -28.3237 -1.92158 23.4913
rtibia 21.946
rfoot -11.916 -9.5003
rtoes -27.741
lfemur -47.7175 3.88636 -5.28808
ltibia 39.03
lfoot -9.36288 2.36354
ltoes -18.8645
2091
root 14.2613 17.4027 -2.00596 14.6774 -136.096 11.6516
lowerback 24.8101 3.8851 -3.98148
upperback 7.96634 2.25557 -6.02174
thorax -4.88757 0.588568 -4.91265
lowerneck -18.3772 16.6862 9.47567
upperneck 24.2618 24.5233 -14.6462
head 14.5996 9.78143 -2.35853
rclavicle -1.74931e-014 5.88403e-014
rhumerus 3.50516 58.8489 -65.9265
rradius 88.2869
rwrist -14.7676
rhand -10.9561 16.1444
rfingers 7.12502
rthumb 15.0628 -13.2876
lclavicle -1.74931e-014 5.88403e-014
lhumerus 12.2855 0.0379117 77.7877
lradius 43.2584
lwrist 60.5691
lhand -13.1036 67.5767
lfingers 7.12502
lthumb 12.9933 622.848
rfemur -28.3026 -1.83729 23.2803
rtibia 21.618
rfoot -11.7632 -9.9743
rtoes -28.2112
lfemur -48.1562 4.02853 -5.65057
ltibia 39.1155
lfoot -9.3809 2.01748
ltoes -20.3574
2092
root 14.1983 17.4027 -1.98523 14.8501 -135.694 11.7983
lowerback 24.8909 3.95243 -4.10146
upperback 7.97944 2.3134 -5.97005
thorax -4.91716 0.616748 -4.80761
lowerneck -18.3707 16.647 9.5817
upperneck 24.0826 24.458 -14.776
head 14.5505 9.76382 -2.43549
rclavicle -7.79236e-014 -2.06736e-014
rhumerus 4.74092 58.6601 -65.6509
rradius 88.0473
rwrist -14.2765
rhand -11.0578 15.6502
rfingers 7.12502
rthumb 14.9648 -13.7891
lclavicle -7.79236e-014 -2.06736e-014
lhumerus 13.6219 0.389201 77.4686
lradius 42.3251
lwrist 59.7054
lhand -13.0197 67.7482
lfingers 7.12502
lthumb 13.0743 622.682
rfemur -28.2698 -1.81607 23.1462
rtibia 21.2764
rfoot -11.6201 -10.4079
rtoes -28.3767
lfemur -48.6001 4.12921 -5.94371
ltibia 39.22
lfoot -9.45363 1.67681
ltoes -21.8351
2093
root 14.1324 17.3993 -1.96463 14.9315 -135.28 12.0433
lowerback 25.0211 4.00998 -4.11446
upperback 7.97206 2.37908 -5.93506
thorax -4.98791 0.650149 -4.78821
lowerneck -18.4314 16.5537 9.45962
upperneck 23.9872 24.2778 -14.5538
head 14.4332 9.71358 -2.37673
rclavicle -1.00187e-013 -1.1291e-013
rhumerus 5.85662 58.4113 -65.452
rradius 87.839
rwrist -13.8162
rhand -11.1069 15.1956
rfingers 7.12502
rthumb 14.9175 -14.2473
lclavicle -1.00187e-013 -1.1291e-013
lhumerus 14.9415 0.586301 77.1085
lradius 41.2587
lwrist 59.0367
lhand -13.113 67.7131
lfingers 7.12502
lthumb 12.9842 622.711
rfemur -28.1694 -1.75162 23.0618
rtibia 20.8869
rfoot -11.4735 -10.8547
rtoes -28.269
lfemur -49.023 4.20765 -6.15827
ltibia 39.3439
lfoot -9.6909 1.23749
ltoes -23.3011
2094
root 14.0661 17.3987 -1.94596 14.9786 -134.888 12.3351
lowerback 25.1087 4.0502 -4.1694
upperback 7.96818 2.4178 -5.88999
thorax -5.03781 0.670383 -4.72341
lowerneck -18.6148 16.4861 9.26687
upperneck 24.0445 24.137 -14.2207
head 14.3836 9.66811 -2.25005
rclavicle -2.22639e-014 -5.24792e-014
rhumerus 7.06623 58.2158 -65.1505
rradius 87.6325
rwrist -13.3871
rhand -11.1877 14.8276
rfingers 7.12502
rthumb 14.8397 -14.621
lclavicle -2.22639e-014 -5.24792e-014
lhumerus 16.2441 0.948882 76.8402
lradius 40.0109
lwrist 58.2074
lhand -13.5474 67.364
lfingers 7.12502
lthumb 12.5655 623.034
rfemur -28.042 -1.63099 22.9963
rtibia 20.4621
rfoot -11.2979 -11.2966
rtoes -28.1052
lfemur -49.4551 4.22181 -6.28316
ltibia 39.4858
lfoot -9.93259 0.92071
ltoes -24.2092
2095
root 13.9997 17.4007 -1.92755 15.0463 -134.508 12.599
lowerback 25.1435 4.06871 -4.3158
upperback 7.99979 2.41106 -5.82683
thorax -5.02996 0.666561 -4.56873
lowerneck -18.9313 16.465 9.09014
upperneck 24.2561 24.1167 -14.0207
head 14.4748 9.63582 -2.13596
rclavicle 4.6118e-014 9.54166e-014
rhumerus 8.48628 58.0775 -64.6979
rradius 87.3532
rwrist -13.0172
rhand -11.3742 14.5794
rfingers 7.12502
rthumb 14.66 -14.8823
lclavicle 4.6118e-014 9.54166e-014
lhumerus 17.5537 1.81116 76.8745
lradius 38.6519
lwrist 57.0376
lhand -14.1415 66.9512
lfingers 7.12502
lthumb 11.9926 623.412
rfemur -27.8996 -1.48472 22.9008
rtibia 19.9924
rfoot -11.0403 -11.7373
rtoes -27.9257
lfemur -49.8986 4.29719 -6.47067
ltibia 39.6404
lfoot -10.2056 0.646442
ltoes -25.1438
2096
root 13.9329 17.4035 -1.90737 15.1307 -134.125 12.7914
lowerback 25.2007 4.06276 -4.46739
upperback 8.05482 2.36017 -5.81001
thorax -5.0072 0.638925 -4.45016
lowerneck -19.0673 16.4269 9.04403
upperneck 24.248 24.0855 -14.0693
head 14.4977 9.60526 -2.14601
rclavicle -8.5875e-014 -5.40694e-014
rhumerus 9.92097 57.9071 -64.387
rradius 86.9682
rwrist -12.6745
rhand -11.4386 14.2641
rfingers 7.12502
rthumb 14.5979 -15.2022
lclavicle -8.5875e-014 -5.40694e-014
lhumerus 18.892 3.25064 77.2175
lradius 37.1808
lwrist 55.7658
lhand -14.2899 66.3526
lfingers 7.12502
lthumb 11.8496 624.003
rfemur -27.6883 -1.29559 22.7332
rtibia 19.4537
rfoot -10.7467 -12.2382
rtoes -27.8442
lfemur -50.3128 4.41471 -6.75171
ltibia 39.8057
lfoot -10.4689 0.282745
ltoes -25.6928
